<svg xmlns="http://www.w3.org/2000/svg" xmlns:xlink="http://www.w3.org/1999/xlink" viewBox="0 0 192.89 192.89"><defs><style>.cls-1{fill:url(#Adsız_degrade_279);}.cls-2{fill:#fff;}</style><linearGradient id="Adsız_degrade_279" x1="4.25" y1="96.44" x2="188.64" y2="96.44" gradientUnits="userSpaceOnUse"><stop offset="0" stop-color="#001464"/><stop offset="0.23" stop-color="#001360"/><stop offset="0.48" stop-color="#001053"/><stop offset="0.72" stop-color="#000b3f"/><stop offset="0.97" stop-color="#000422"/><stop offset="1" stop-color="#00031e"/></linearGradient></defs><g id="katman_2" data-name="katman 2"><g id="katman_1-2" data-name="katman 1"><rect class="cls-1" x="4.25" y="4.25" width="184.39" height="184.39" rx="92.19"/><path class="cls-2" d="M114.14,57.3a5.27,5.27,0,0,0-4,1.56,5.45,5.45,0,0,0-1.51,3.93,5.59,5.59,0,0,0,9.47,3.92,5.42,5.42,0,0,0,1.5-3.92,5.33,5.33,0,0,0-5.48-5.49Z"/><path class="cls-2" d="M149.92,110.93a11.15,11.15,0,0,0-5.45-1.3,11.34,11.34,0,0,0-5.45,1.3,9.82,9.82,0,0,0-3.84,3.61,10.25,10.25,0,0,0,0,10.31,10.12,10.12,0,0,0,3.84,3.61,11.13,11.13,0,0,0,5.45,1.33,11,11,0,0,0,5.45-1.33,10.24,10.24,0,0,0,3.78-3.61,10.25,10.25,0,0,0,0-10.31A9.93,9.93,0,0,0,149.92,110.93Z"/><path class="cls-2" d="M96.44,0h0A96.44,96.44,0,0,0,0,96.44H0a96.45,96.45,0,0,0,96.44,96.45h0a96.45,96.45,0,0,0,96.45-96.45h0A96.45,96.45,0,0,0,96.44,0Zm34.31,91.61a14.41,14.41,0,0,1,0-14.88,14.7,14.7,0,0,1,5.63-5.2,16.69,16.69,0,0,1,8-1.91,15.85,15.85,0,0,1,8.07,2.08,15.23,15.23,0,0,1,5.65,5.62,16.31,16.31,0,0,1,0,15.94,15.38,15.38,0,0,1-5.65,5.59,15.84,15.84,0,0,1-8.07,2.07H131.75a2.9,2.9,0,1,1,0-5.79h2.15A14.52,14.52,0,0,1,130.75,91.61ZM102.4,130a7.66,7.66,0,1,1-15.32,0v-5.59a38.17,38.17,0,0,1-9.32,8.22,36.15,36.15,0,0,1-19.68,5.49,36.15,36.15,0,0,1-19.68-5.49,38.88,38.88,0,0,1-13.75-14.87,44.24,44.24,0,0,1-5-21.26A41.76,41.76,0,0,1,25.1,75.18,40.62,40.62,0,0,1,40,60.23a41.15,41.15,0,0,1,21.12-5.48A40.41,40.41,0,0,1,96.92,75.18a41.76,41.76,0,0,1,5.48,21.34Zm19.4-.15a7.58,7.58,0,0,1-2.1,5.49,7.7,7.7,0,0,1-13.22-5.49V63a7.4,7.4,0,0,1,2.17-5.56A7.63,7.63,0,0,1,121.8,63Zm50.68-20.81a2.86,2.86,0,0,1-2.11.79H155a14.59,14.59,0,0,1,3.77,4.8,14.32,14.32,0,0,1-.68,13.61,14.82,14.82,0,0,1-5.62,5.2,16.86,16.86,0,0,1-8,1.9,15.84,15.84,0,0,1-8.07-2.07,16,16,0,0,1-5.65-21.56,15.18,15.18,0,0,1,5.65-5.57,16.48,16.48,0,0,1,8.07-2.1h25.9a2.8,2.8,0,0,1,2.11.82,2.87,2.87,0,0,1,.79,2.08A2.84,2.84,0,0,1,172.48,109.06Zm0-48.82a2.78,2.78,0,0,1-2,.79h-31a6.79,6.79,0,0,0-3.46.8,2.33,2.33,0,0,0-1.36,2v1.42a2.38,2.38,0,0,1-.8,1.85,3,3,0,0,1-2,.71,2.44,2.44,0,0,1-2.05-1.08,4.58,4.58,0,0,1-.79-2.78v-.12a7.48,7.48,0,0,1,1.36-4.43,9,9,0,0,1,3.72-3,12.88,12.88,0,0,1,5.42-1.08h31a2.79,2.79,0,0,1,2,.8,3,3,0,0,1,0,4.09Z"/><path class="cls-2" d="M84.22,82A26.21,26.21,0,0,0,74.76,72a25.7,25.7,0,0,0-13.67-3.68A25.78,25.78,0,0,0,47.49,72,26.53,26.53,0,0,0,37.87,82a29.51,29.51,0,0,0-3.53,14.5,29.2,29.2,0,0,0,3.53,14.35,26.44,26.44,0,0,0,9.62,10.06,25.7,25.7,0,0,0,13.6,3.69,25.62,25.62,0,0,0,13.67-3.69,26.11,26.11,0,0,0,9.46-10.06,29.6,29.6,0,0,0,3.46-14.35A29.91,29.91,0,0,0,84.22,82Z"/><path class="cls-2" d="M139,94.05a11.23,11.23,0,0,0,5.42,1.31,11.39,11.39,0,0,0,5.49-1.31,9.92,9.92,0,0,0,3.8-3.58,10.25,10.25,0,0,0,0-10.31,10.12,10.12,0,0,0-3.8-3.63,11.19,11.19,0,0,0-5.49-1.34A11,11,0,0,0,139,76.53a10.07,10.07,0,0,0-3.81,3.63,10.25,10.25,0,0,0,0,10.31A9.87,9.87,0,0,0,139,94.05Z"/></g></g></svg>